<?xml version="1.0" standalone="no"?>
<!DOCTYPE svg PUBLIC "-//W3C//DTD SVG 20010904//EN"
 "http://www.w3.org/TR/2001/REC-SVG-20010904/DTD/svg10.dtd">
<svg version="1.0" xmlns="http://www.w3.org/2000/svg"
 width="800.000000pt" height="800.000000pt" viewBox="0 0 800.000000 800.000000"
 preserveAspectRatio="xMidYMid meet">
<metadata>
Created by potrace 1.11, written by Peter Selinger 2001-2013
</metadata>
<g transform="translate(0.000000,800.000000) scale(0.100000,-0.100000)"
fill="#000000" stroke="none">
<path d="M5981 5550 c-4 -3 -6 -252 -6 -555 1 -302 0 -553 -2 -557 -2 -4 -25
8 -51 26 -88 63 -194 113 -300 142 -181 49 -410 42 -592 -17 -214 -69 -382
-188 -508 -359 -68 -93 -142 -251 -158 -340 -3 -14 -9 -43 -14 -65 -33 -149
-31 -367 5 -556 45 -237 217 -489 427 -627 362 -236 863 -214 1143 49 22 21
42 36 45 33 2 -3 5 -49 5 -102 l0 -97 288 -3 287 -2 -2 1517 -3 1518 -278 0
c-153 0 -282 -2 -286 -5z m-342 -1419 c107 -37 187 -96 250 -186 69 -98 84
-168 84 -385 1 -161 -2 -194 -21 -255 -50 -165 -176 -285 -344 -329 -69 -18
-216 -19 -289 -2 -217 51 -363 221 -396 461 -13 91 -5 245 17 330 49 192 191
335 377 379 85 20 242 14 322 -13z"/>
<path d="M3611 5498 c-29 -5 -75 -19 -102 -32 -53 -27 -121 -84 -114 -96 3 -4
-1 -10 -9 -13 -27 -11 -59 -100 -62 -174 -3 -88 15 -149 64 -214 126 -169 363
-185 511 -37 70 70 102 157 95 258 -12 190 -194 336 -383 308z"/>
<path d="M1965 4634 c-16 -2 -50 -9 -75 -15 -25 -6 -54 -13 -65 -15 -78 -15
-219 -93 -301 -167 -182 -165 -227 -467 -100 -675 99 -162 264 -260 585 -347
345 -93 444 -149 458 -254 12 -90 -22 -153 -106 -196 -163 -82 -419 -35 -535
98 -42 47 -96 156 -96 192 0 20 -8 19 -124 -16 -56 -16 -126 -37 -156 -46
-145 -42 -165 -51 -176 -80 -10 -23 -8 -38 12 -93 103 -274 320 -457 609 -513
126 -25 153 -28 266 -28 93 -1 136 3 225 16 156 24 343 120 451 233 195 203
226 571 64 772 -46 58 -62 72 -141 124 -58 39 -89 55 -195 102 -17 7 -123 40
-235 73 -381 111 -453 147 -481 242 -15 48 -6 80 32 123 42 48 112 70 221 70
77 0 94 -4 152 -33 99 -49 140 -101 191 -249 3 -7 13 -11 22 -8 10 3 88 21
173 41 226 53 226 54 251 74 21 17 21 21 10 67 -22 89 -87 207 -154 276 -153
159 -330 227 -607 233 -80 2 -158 1 -175 -1z"/>
<path d="M3370 3560 l0 -1040 290 0 290 0 0 1040 0 1040 -290 0 -290 0 0
-1040z"/>
</g>
</svg>
